HIERARCHY
ROOT Hips
{
	OFFSET 0.000000 0.000000 0.000000 
	CHANNELS 6 Xposition Yposition Zposition Zrotation Xrotation Yrotation
	JOINT Spine
	{
		OFFSET -0.000000 8.061080 0.000000 
		CHANNELS 3 Zrotation Xrotation Yrotation
		JOINT Spine1
		{
			OFFSET -0.000000 20.532677 0.000000 
			CHANNELS 3 Zrotation Xrotation Yrotation
			JOINT Neck
			{
				OFFSET -0.000000 22.498795 0.000000 
				CHANNELS 3 Zrotation Xrotation Yrotation
				JOINT Head
				{
					OFFSET -0.000000 15.237408 1.966117 
					CHANNELS 3 Zrotation Xrotation Yrotation
					End Site
					{
						OFFSET -0.000000 19.661171 0.000000 
					}
				}
			}
			JOINT LeftShoulder
			{
				OFFSET 3.894675 16.042269 -0.398189 
				CHANNELS 3 Zrotation Xrotation Yrotation
				JOINT LeftArm
				{
					OFFSET 19.709621 0.000000 0.000000 
					CHANNELS 3 Zrotation Xrotation Yrotation
					JOINT LeftForeArm
					{
						OFFSET 25.566900 0.000000 0.000000 
						CHANNELS 3 Zrotation Xrotation Yrotation
						JOINT LeftHand
						{
							OFFSET 25.401896 0.000000 0.000000 
							CHANNELS 3 Zrotation Xrotation Yrotation
							End Site
							{
								OFFSET 14.745877 0.000000 0.000000 
							}
						}
					}
				}
			}
			JOINT RightShoulder
			{
				OFFSET -3.930777 16.042269 -0.398189 
				CHANNELS 3 Zrotation Xrotation Yrotation
				JOINT RightArm
				{
					OFFSET -19.709621 0.000000 0.000000 
					CHANNELS 3 Zrotation Xrotation Yrotation
					JOINT RightForeArm
					{
						OFFSET -25.566900 0.000000 0.000000 
						CHANNELS 3 Zrotation Xrotation Yrotation
						JOINT RightHand
						{
							OFFSET -25.401896 0.000000 0.000000 
							CHANNELS 3 Zrotation Xrotation Yrotation
							End Site
							{
								OFFSET -14.745877 0.000000 0.000000 
							}
						}
					}
				}
			}
		}
	}
	JOINT LeftUpLeg
	{
		OFFSET 9.830585 0.000000 0.000000 
		CHANNELS 3 Zrotation Xrotation Yrotation
		JOINT LeftLeg
		{
			OFFSET -0.000000 -46.474842 0.000000 
			CHANNELS 3 Zrotation Xrotation Yrotation
			JOINT LeftFoot
			{
				OFFSET -0.000000 -30.290520 0.000000 
				CHANNELS 3 Zrotation Xrotation Yrotation
				JOINT LeftToeBase
				{
					OFFSET -0.000000 -6.389880 14.745877 
					CHANNELS 3 Zrotation Xrotation Yrotation
					End Site
					{
						OFFSET -0.000000 0.000000 3.932234 
					}
				}
			}
		}
	}
	JOINT RightUpLeg
	{
		OFFSET -9.830585 0.000000 0.000000 
		CHANNELS 3 Zrotation Xrotation Yrotation
		JOINT RightLeg
		{
			OFFSET -0.000000 -46.474842 0.000000 
			CHANNELS 3 Zrotation Xrotation Yrotation
			JOINT RightFoot
			{
				OFFSET -0.000000 -30.290520 0.000000 
				CHANNELS 3 Zrotation Xrotation Yrotation
				JOINT RightToeBase
				{
					OFFSET -0.000000 -6.389880 14.745877 
					CHANNELS 3 Zrotation Xrotation Yrotation
					End Site
					{
						OFFSET -0.000000 0.000000 3.932234 
					}
				}
			}
		}
	}
}
MOTION
Frames: 9
Frame Time: 0.010000
0.000000 85.375610 0.000000 -2.463244 5.147926 7.929497 1.460372 -7.412587 -0.981868 2.376060 -2.967945 -0.299105 2.969881 7.582508 0.796363 0.247536 6.467743 1.371359 2.489634 9.614048 -0.685817 -70.306961 27.136160 -24.335094 -12.933094 2.262691 -4.064329 4.166684 2.067874 7.299933 -7.853620 10.224083 -10.600992 58.579819 53.175415 37.005333 6.582383 -8.556028 6.531481 -13.828500 -7.484254 -11.981922 4.146676 3.070822 5.043596 1.995085 -8.205623 5.217862 2.672781 6.018260 1.889315 0.000000 0.000000 0.000000 -6.016605 -4.724542 6.061409 4.130513 8.553238 0.290721 0.000000 0.000000 0.000000 0.000000 0.000000 0.000000 
0.002093 85.372475 -0.006395 -2.453547 5.140710 7.920646 1.502696 -7.354315 -0.998647 2.295441 -3.073043 -0.305351 3.102358 7.672244 0.791717 0.055201 6.418296 1.430961 2.538841 9.621915 -0.602324 -70.330269 27.227589 -24.324680 -12.921129 2.249093 -4.047135 4.172499 2.056145 7.275072 -7.769920 10.258076 -10.540417 58.474457 53.242851 37.020096 6.575807 -8.561862 6.559341 -14.036170 -7.480159 -11.894513 4.126565 3.079133 5.044929 1.992637 -8.208465 5.233722 3.290117 6.137270 1.543942 0.000000 0.000000 0.000000 -6.024778 -4.377798 6.105635 4.130513 8.553238 0.290721 0.000000 0.000000 0.000000 0.000000 0.000000 0.000000 
-0.002498 85.370163 -0.014296 -2.441812 5.135770 7.923897 1.448282 -7.380690 -0.983923 2.367529 -3.011232 -0.298583 3.094713 7.642707 0.760352 0.033306 6.426127 1.400262 2.499709 9.639153 -0.663881 -70.302673 27.155451 -24.338535 -12.942395 2.262710 -4.068987 4.226997 2.069774 7.270477 -7.855818 10.182513 -10.534693 58.603081 53.259003 36.930737 6.560205 -8.587980 6.518443 -14.004258 -7.504203 -11.912999 4.136453 3.128988 5.057123 1.956717 -8.339777 5.222497 2.740805 6.114110 1.857970 0.000000 0.000000 0.000000 -6.036376 -4.377100 6.106072 4.130513 8.553238 0.290721 0.000000 0.000000 0.000000 0.000000 0.000000 0.000000 
-0.002784 85.371201 -0.028406 -2.439719 5.138571 7.927947 1.476942 -7.352812 -1.005374 2.321796 -3.061848 -0.306474 3.099234 7.655767 0.774360 0.042832 6.437737 1.414260 2.531870 9.602271 -0.602719 -70.315147 27.266846 -24.326385 -12.928248 2.228811 -4.038335 4.205374 2.037821 7.251069 -7.832381 10.202582 -10.516964 58.502552 53.329639 37.029743 6.543395 -8.628242 6.499619 -14.009090 -7.540112 -11.928635 4.132491 3.114674 5.042675 1.959505 -8.337413 5.233322 2.769840 6.128924 1.839857 0.000000 0.000000 0.000000 -6.041630 -4.388921 6.095233 4.130513 8.553238 0.290721 0.000000 0.000000 0.000000 0.000000 0.000000 0.000000 
-0.003469 85.371819 -0.039135 -2.436830 5.140255 7.919631 1.441458 -7.377000 -0.982395 2.379652 -3.024493 -0.297302 3.095631 7.627677 0.765985 0.019504 6.451782 1.408368 2.493662 9.662954 -0.652452 -70.295181 27.166403 -24.356880 -12.938786 2.255654 -4.070074 4.238043 2.063901 7.281878 -7.859425 10.192549 -10.534263 58.588703 53.246834 36.945942 6.571835 -8.593045 6.516745 -14.048145 -7.501688 -11.941668 4.128241 3.108536 5.042691 1.960496 -8.340173 5.241930 2.798405 6.143420 1.822190 0.000000 0.000000 0.000000 -6.041955 -4.397536 6.093127 4.130513 8.553238 0.290721 0.000000 0.000000 0.000000 0.000000 0.000000 0.000000 
-0.003266 85.377968 -0.054026 -2.449296 5.130420 7.912627 1.507688 -7.406000 -0.957083 2.296997 -2.974229 -0.293676 3.000306 7.630572 0.802171 0.239614 6.405863 1.386257 2.544894 9.576727 -0.692206 -70.329308 27.208944 -24.294886 -12.924388 2.238108 -4.053718 4.211302 2.046353 7.264645 -7.825570 10.233281 -10.589946 58.509159 53.267254 37.095432 6.536736 -8.634099 6.482352 -13.922843 -7.541015 -12.032307 4.139138 3.105685 5.041233 1.962963 -8.337772 5.250022 2.826713 6.164070 1.807074 0.000000 0.000000 0.000000 -6.010069 -4.347487 6.045275 4.130513 8.553238 0.290721 0.000000 0.000000 0.000000 0.000000 0.000000 0.000000 
-0.000798 85.366158 -0.052902 -2.455053 5.121755 7.903461 1.482147 -7.379576 -0.972452 2.364887 -3.013929 -0.295506 3.095968 7.645560 0.762655 0.015892 6.432531 1.406099 2.500108 9.687421 -0.639338 -70.292503 27.169449 -24.376085 -12.940436 2.251201 -4.061789 4.241239 2.059900 7.265897 -7.857163 10.191605 -10.529999 58.565300 53.271870 36.969139 6.544213 -8.607759 6.495593 -14.020988 -7.515661 -11.948834 4.143303 3.129244 5.045926 1.967600 -8.358399 5.260507 2.850470 6.140205 1.779535 0.000000 0.000000 0.000000 -6.026666 -4.390218 6.100006 4.130513 8.553238 0.290721 0.000000 0.000000 0.000000 0.000000 0.000000 0.000000 
-0.004367 85.374268 -0.071609 -2.427621 5.128183 7.910310 1.477531 -7.377867 -0.967438 2.319223 -3.021730 -0.294747 3.124592 7.652473 0.752238 -0.001505 6.435171 1.404492 2.537452 9.618606 -0.652896 -70.317459 27.228970 -24.316811 -12.932956 2.260824 -4.050792 4.248989 2.071172 7.255589 -7.827956 10.204215 -10.552497 58.519135 53.299957 37.037403 6.521589 -8.621836 6.465235 -13.985197 -7.528954 -11.961853 4.117024 3.102020 5.032470 1.964065 -8.344077 5.260220 2.878394 6.184697 1.772945 0.000000 0.000000 0.000000 -6.052851 -4.404362 6.106016 4.130513 8.553238 0.290721 0.000000 0.000000 0.000000 0.000000 0.000000 0.000000 
-0.004986 85.375832 -0.082544 -2.427165 5.128464 7.906153 1.476750 -7.390263 -0.965341 2.320513 -3.005981 -0.294419 3.122410 7.659332 0.748082 0.003200 6.418747 1.399082 2.542783 9.595566 -0.667408 -70.338005 27.238503 -24.282743 -12.911570 2.257477 -4.054393 4.237465 2.067045 7.243834 -7.829575 10.199183 -10.552881 58.509392 53.309246 37.047741 6.508712 -8.635824 6.462371 -13.965748 -7.543354 -11.968324 4.115610 3.095334 5.029855 1.964804 -8.345594 5.267261 2.902497 6.199254 1.758134 0.000000 0.000000 0.000000 -6.053927 -4.414407 6.110755 4.130513 8.553238 0.290721 0.000000 0.000000 0.000000 0.000000 0.000000 0.000000 
